<svg xmlns="http://www.w3.org/2000/svg" xml:space="preserve" width="30" height="30" viewBox="0 0 512 512"><path d="M256 94.62c-72.753 0-131.943 59.189-131.943 131.943 0 50.314 28.716 96.217 73.593 118.363v30.926a7.885 7.885 0 0 0 7.885 7.885h100.928a7.885 7.885 0 0 0 7.885-7.885v-30.926c44.877-22.147 73.593-68.051 73.593-118.363C387.943 153.809 328.753 94.62 256 94.62z" style="fill:#f7d04a"/><path d="M124.058 226.563c0 50.314 28.716 96.217 73.593 118.363v30.926h24.706v-30.926c-44.877-22.147-73.593-68.051-73.593-118.363 0-68.588 52.608-125.11 119.589-131.36-4.069-.38-8.187-.582-12.353-.582-72.753-.001-131.942 59.188-131.942 131.942z" style="fill:#f3b41b"/><path d="M281.294 418.798a7.885 7.885 0 0 1-7.885-7.885v-154.02h-34.818v154.021a7.885 7.885 0 0 1-7.885 7.885 7.885 7.885 0 0 1-7.885-7.885V256.893h-14.099c-9.877 0-18.547-5.959-22.085-15.18s-1.081-19.45 6.261-26.057l6.213-5.593c7.043-6.337 16.794-7.881 25.449-4.027 8.655 3.855 14.031 12.135 14.031 21.609v13.478h34.818v-13.478c0-9.475 5.377-17.754 14.031-21.609 8.654-3.855 18.406-2.312 25.449 4.027l6.214 5.593c7.341 6.608 9.798 16.836 6.261 26.057-3.539 9.221-12.208 15.18-22.085 15.18H289.18v154.021a7.886 7.886 0 0 1-7.886 7.884zm7.885-177.675h14.099c7.109 0 10.589-8.964 5.276-13.746l-6.214-5.593c-5.019-4.518-13.16-.851-13.16 5.861v13.478h-.001zm-74.367-21.386c-1.541 0-3.386.458-5.15 2.046l-6.213 5.593c-3.739 3.364-2.542 7.498-2.087 8.686.455 1.187 2.333 5.06 7.361 5.06h14.099v-13.478c-.001-4.401-3.641-7.907-8.01-7.907z" style="fill:#eb6836"/><path d="M331.696 363.762H180.304a7.885 7.885 0 0 0-7.885 7.885v85.158c0 30.435 24.76 55.195 55.195 55.195h56.772c30.435 0 55.195-24.76 55.195-55.195v-85.158a7.885 7.885 0 0 0-7.885-7.885z" style="fill:#62c9cc"/><path d="M339.581 421.585v-15.77H203.433v-42.053h-23.129a7.885 7.885 0 0 0-7.885 7.885v77.197c0 5.286-.178 10.597.572 15.846 3.838 26.711 26.866 47.31 54.623 47.31h31.014c-27.805 0-50.797-20.563-54.625-47.31h135.006c.37-2.577.572-5.207.572-7.885v-7.885H203.433v-27.335h136.148z" style="fill:#50a9a9"/><circle cx="291.745" cy="157.175" r="29.437" style="fill:#fee7be"/><path d="M256 59.926a7.885 7.885 0 0 1-7.885-7.885V7.885A7.885 7.885 0 0 1 256 0a7.885 7.885 0 0 1 7.885 7.885v44.156A7.885 7.885 0 0 1 256 59.926zM167.695 83.591a7.882 7.882 0 0 1-6.836-3.944l-22.078-38.24a7.885 7.885 0 0 1 13.657-7.885l22.078 38.24c2.972 5.147-.841 11.829-6.821 11.829zM103.032 148.239a7.848 7.848 0 0 1-3.935-1.058l-38.24-22.078a7.885 7.885 0 0 1 7.885-13.657l38.24 22.078a7.885 7.885 0 0 1-3.95 14.715zM79.376 236.55H35.22a7.885 7.885 0 0 1-7.885-7.885 7.885 7.885 0 0 1 7.885-7.885h44.156a7.885 7.885 0 1 1 0 15.77zM64.806 346.942a7.885 7.885 0 0 1-3.95-14.715l38.24-22.078a7.885 7.885 0 0 1 7.885 13.657l-38.24 22.078a7.845 7.845 0 0 1-3.935 1.058zM447.194 346.942a7.848 7.848 0 0 1-3.935-1.058l-38.24-22.078a7.885 7.885 0 0 1 7.885-13.657l38.24 22.078a7.885 7.885 0 0 1-3.95 14.715zM476.78 236.55h-44.156a7.885 7.885 0 0 1-7.885-7.885 7.885 7.885 0 0 1 7.885-7.885h44.156a7.885 7.885 0 0 1 7.885 7.885 7.885 7.885 0 0 1-7.885 7.885zM408.968 148.239a7.885 7.885 0 0 1-3.95-14.715l38.24-22.078a7.885 7.885 0 0 1 7.885 13.657l-38.24 22.078a7.837 7.837 0 0 1-3.935 1.058zM344.305 83.591c-5.98 0-9.793-6.681-6.821-11.829l22.078-38.24a7.885 7.885 0 1 1 13.657 7.885l-22.078 38.24a7.882 7.882 0 0 1-6.836 3.944z" style="fill:#eb6836"/></svg>